<svg xmlns="http://www.w3.org/2000/svg" xmlns:xlink="http://www.w3.org/1999/xlink" width="40" zoomAndPan="magnify" viewBox="0 0 37.5 37.5" height="40" preserveAspectRatio="xMidYMid meet" version="1.0"><defs><clipPath id="3dee15e95c"><polygon points="15,8.75 22.5,8.75 28.125,15 28.125,22.5 22.5,28.125 15,28.125 8.75,22.5 8.75,15" /></clipPath><clipPath id="c3edfaa660"><polygon points="15.99609375,8.75 23.49609375,8.75 29.37109375,15 29.37109375,22.5 23.49609375,28.125 15.99609375,28.125 9.12109375,22.5 9.12109375,15" /></clipPath><clipPath id="57f642e9af"><polygon points="15,8.75 22.5,8.75 28.125,15 28.125,22.5 22.5,28.125 15,28.125 8.75,22.5 8.75,15" /></clipPath><clipPath id="1c7ae8e745"><polygon points="15.99609375,8.75 23.49609375,8.75 29.37109375,15 29.37109375,22.5 23.49609375,28.125 15.99609375,28.125 9.12109375,22.5 9.12109375,15" /></clipPath></defs><g clip-path="url(#3dee15e95c)"><g clip-path="url(#c3edfaa660)"><polygon points="15,8.75 22.5,8.75 28.125,15 28.125,22.5 22.5,28.125 15,28.125 8.75,22.5 8.75,15" fill="#FFFF00" fill-opacity="1" fill-rule="nonzero" /></g></g><g clip-path="url(#57f642e9af)"><g clip-path="url(#1c7ae8e745)"><polygon points="15,8.75 22.5,8.75 28.125,15 28.125,22.5 22.5,28.125 15,28.125 8.75,22.5 8.75,15" fill="none" stroke="#FF2600" stroke-width="6" stroke-opacity="1" stroke-miterlimit="4" /></g></g></svg>
