<svg xmlns="http://www.w3.org/2000/svg" xmlns:xlink="http://www.w3.org/1999/xlink" width="40" zoomAndPan="magnify" viewBox="0 0 30 30.000001" height="40" preserveAspectRatio="xMidYMid meet" version="1.0"><defs><clipPath id="c3bac9dd32"><path d="M 1.671875 0.945312 L 28.53125 0.945312 L 28.53125 26.242188 L 1.671875 26.242188 Z M 1.671875 0.945312 " clip-rule="nonzero"/></clipPath><clipPath id="185ec1e61e"><path d="M 15 0.945312 L 18.144531 10.5625 L 28.328125 10.5625 L 20.089844 16.507812 L 23.234375 26.128906 L 15 20.183594 L 6.765625 26.128906 L 9.910156 16.507812 L 1.671875 10.5625 L 11.855469 10.5625 L 15 0.945312 " clip-rule="nonzero"/></clipPath><clipPath id="78c7cf67fe"><path d="M 1.675781 0.945312 L 28.527344 0.945312 L 28.527344 26.347656 L 1.675781 26.347656 Z M 1.675781 0.945312 " clip-rule="nonzero"/></clipPath><clipPath id="ecf3394687"><path d="M 15.101562 0.945312 L 18.269531 10.648438 L 28.523438 10.648438 L 20.226562 16.644531 L 23.398438 26.347656 L 15.101562 20.351562 L 6.804688 26.347656 L 9.972656 16.644531 L 1.675781 10.648438 L 11.933594 10.648438 L 15.101562 0.945312 " clip-rule="nonzero"/></clipPath></defs><g clip-path="url(#c3bac9dd32)"><g clip-path="url(#185ec1e61e)"><path fill="#d9c39e" d="M 1.671875 0.945312 L 28.140625 0.945312 L 28.140625 26.242188 L 1.671875 26.242188 Z M 1.671875 0.945312 " fill-opacity="1" fill-rule="nonzero"/></g></g><g clip-path="url(#78c7cf67fe)"><g clip-path="url(#ecf3394687)"><path stroke-linecap="butt" transform="matrix(0.731366, 0, 0, 0.732345, 1.677154, 0.943508)" fill="none" stroke-linejoin="miter" d="M 18.355259 0.00246445 L 22.686838 13.251851 L 36.707054 13.251851 L 25.362697 21.439374 L 29.699617 34.68876 L 18.355259 26.501237 L 7.010901 34.68876 L 11.342481 21.439374 L -0.00187719 13.251851 L 14.02368 13.251851 L 18.355259 0.00246445 " stroke="#f6f8f8" stroke-width="6" stroke-opacity="1" stroke-miterlimit="4"/></g></g></svg>