<svg xmlns="http://www.w3.org/2000/svg" xmlns:xlink="http://www.w3.org/1999/xlink" width="80" zoomAndPan="magnify" viewBox="0 0 30 30.000001" height="80" preserveAspectRatio="xMidYMid meet" version="1.0"><defs><clipPath id="c63e3e807f"><path d="M 8.140625 6.859375 L 23.457031 6.859375 L 23.457031 22.171875 L 8.140625 22.171875 Z M 8.140625 6.859375 " clip-rule="nonzero"/></clipPath><clipPath id="ab00fc900b"><path d="M 15.796875 6.859375 C 11.570312 6.859375 8.140625 10.289062 8.140625 14.515625 C 8.140625 18.746094 11.570312 22.171875 15.796875 22.171875 C 20.027344 22.171875 23.457031 18.746094 23.457031 14.515625 C 23.457031 10.289062 20.027344 6.859375 15.796875 6.859375 " clip-rule="nonzero"/></clipPath><clipPath id="054619a04b"><path d="M 8.140625 6.859375 L 23.382812 6.859375 L 23.382812 22.101562 L 8.140625 22.101562 Z M 8.140625 6.859375 " clip-rule="nonzero"/></clipPath><clipPath id="b586f177f3"><path d="M 15.761719 6.859375 C 11.554688 6.859375 8.140625 10.269531 8.140625 14.480469 C 8.140625 18.6875 11.554688 22.101562 15.761719 22.101562 C 19.972656 22.101562 23.382812 18.6875 23.382812 14.480469 C 23.382812 10.269531 19.972656 6.859375 15.761719 6.859375 " clip-rule="nonzero"/></clipPath></defs><g clip-path="url(#c63e3e807f)"><g clip-path="url(#ab00fc900b)"><path fill="#929292" d="M 8.140625 6.859375 L 23.457031 6.859375 L 23.457031 22.171875 L 8.140625 22.171875 Z M 8.140625 6.859375 " fill-opacity="1" fill-rule="nonzero"/></g></g><g clip-path="url(#054619a04b)"><g clip-path="url(#b586f177f3)"><path stroke-linecap="butt" transform="matrix(0.722581, 0, 0, 0.722581, 8.141128, 6.858873)" fill="none" stroke-linejoin="miter" d="M 10.546352 0.000694945 C 4.724122 0.000694945 -0.000696787 4.720108 -0.000696787 10.547744 C -0.000696787 16.369975 4.724122 21.094793 10.546352 21.094793 C 16.373989 21.094793 21.093402 16.369975 21.093402 10.547744 C 21.093402 4.720108 16.373989 0.000694945 10.546352 0.000694945 " stroke="#ff2600" stroke-width="6" stroke-opacity="1" stroke-miterlimit="4"/></g></g></svg>