<svg xmlns="http://www.w3.org/2000/svg" xmlns:xlink="http://www.w3.org/1999/xlink" width="80" zoomAndPan="magnify" viewBox="0 0 30 30.000001" height="80" preserveAspectRatio="xMidYMid meet" version="1.0"><defs><clipPath id="be61658915"><path d="M 5.59375 1.214844 L 24.648438 1.214844 L 24.648438 28 L 5.59375 28 Z M 5.59375 1.214844 " clip-rule="nonzero"/></clipPath><clipPath id="f397190572"><path d="M 15 1.214844 L 24.40625 14.515625 L 15 27.816406 L 5.59375 14.515625 L 15 1.214844 " clip-rule="nonzero"/></clipPath><clipPath id="4474d3be31"><path d="M 5.59375 1.214844 L 24.464844 1.214844 L 24.464844 28.070312 L 5.59375 28.070312 Z M 5.59375 1.214844 " clip-rule="nonzero"/></clipPath><clipPath id="ac87597d6c"><path d="M 15.03125 1.214844 L 24.464844 14.640625 L 15.03125 28.070312 L 5.59375 14.640625 L 15.03125 1.214844 " clip-rule="nonzero"/></clipPath></defs><g clip-path="url(#be61658915)"><g clip-path="url(#f397190572)"><path fill="#0096ff" d="M 5.59375 1.214844 L 24.25 1.214844 L 24.25 27.808594 L 5.59375 27.808594 Z M 5.59375 1.214844 " fill-opacity="1" fill-rule="nonzero"/></g></g><g clip-path="url(#4474d3be31)"><g clip-path="url(#ac87597d6c)"><path stroke-linecap="butt" transform="matrix(0.728433, 0, 0, 0.732925, 5.594962, 1.214299)" fill="none" stroke-linejoin="miter" d="M 12.954228 0.000743767 L 25.904758 18.318821 L 12.954228 36.642228 L -0.00166427 18.318821 L 12.954228 0.000743767 " stroke="#0096ff" stroke-width="6" stroke-opacity="1" stroke-miterlimit="4"/></g></g></svg>