<svg xmlns="http://www.w3.org/2000/svg" xmlns:xlink="http://www.w3.org/1999/xlink" width="80" zoomAndPan="magnify" viewBox="0 0 30 30.000001" height="80" preserveAspectRatio="xMidYMid meet" version="1.0"><defs><clipPath id="5e57ccb255"><path d="M 7.742188 7.257812 L 22.257812 7.257812 L 22.257812 21.773438 L 7.742188 21.773438 Z M 7.742188 7.257812 " clip-rule="nonzero"/></clipPath><clipPath id="bb0ac85ad4"><path d="M 15 7.257812 C 10.992188 7.257812 7.742188 10.507812 7.742188 14.515625 C 7.742188 18.523438 10.992188 21.773438 15 21.773438 C 19.007812 21.773438 22.257812 18.523438 22.257812 14.515625 C 22.257812 10.507812 19.007812 7.257812 15 7.257812 " clip-rule="nonzero"/></clipPath></defs><g clip-path="url(#5e57ccb255)"><g clip-path="url(#bb0ac85ad4)"><path fill="#d9c39e" d="M 7.742188 7.257812 L 22.257812 7.257812 L 22.257812 21.773438 L 7.742188 21.773438 Z M 7.742188 7.257812 " fill-opacity="1" fill-rule="nonzero"/><path stroke-linecap="butt" transform="matrix(0.725806, 0, 0, 0.725806, 7.741935, 7.258066)" fill="none" stroke-linejoin="miter" d="M 10.000001 -0.000349806 C 4.478126 -0.000349806 0.000347972 4.477428 0.000347972 9.999303 C 0.000347972 15.521178 4.478126 19.998956 10.000001 19.998956 C 15.521876 19.998956 19.999654 15.521178 19.999654 9.999303 C 19.999654 4.477428 15.521876 -0.000349806 10.000001 -0.000349806 " stroke="#737373" stroke-width="2" stroke-opacity="1" stroke-miterlimit="4"/></g></g></svg>