<svg xmlns="http://www.w3.org/2000/svg" xmlns:xlink="http://www.w3.org/1999/xlink" width="80" zoomAndPan="magnify" viewBox="0 0 30 30.000001" height="80" preserveAspectRatio="xMidYMid meet" version="1.0"><defs><clipPath id="f11f19e00b"><path d="M 1.292969 1.453125 L 28.707031 1.453125 L 28.707031 27.582031 L 1.292969 27.582031 Z M 1.292969 1.453125 " clip-rule="nonzero"/></clipPath><clipPath id="ac6eccccc5"><path d="M 15 1.453125 L 18.234375 11.433594 L 28.707031 11.433594 L 20.234375 17.601562 L 23.472656 27.582031 L 15 21.414062 L 6.527344 27.582031 L 9.765625 17.601562 L 1.292969 11.433594 L 11.765625 11.433594 L 15 1.453125 " clip-rule="nonzero"/></clipPath><clipPath id="13dc476f29"><path d="M 1.292969 1.453125 L 28.875 1.453125 L 28.875 27.578125 L 1.292969 27.578125 Z M 1.292969 1.453125 " clip-rule="nonzero"/></clipPath><clipPath id="2bd0865c9a"><path d="M 15.082031 1.453125 L 18.339844 11.433594 L 28.875 11.433594 L 20.351562 17.601562 L 23.605469 27.578125 L 15.082031 21.410156 L 6.558594 27.578125 L 9.816406 17.601562 L 1.292969 11.433594 L 11.828125 11.433594 L 15.082031 1.453125 " clip-rule="nonzero"/></clipPath></defs><g clip-path="url(#f11f19e00b)"><g clip-path="url(#ac6eccccc5)"><path fill="#d9c39e" d="M 1.292969 1.453125 L 28.707031 1.453125 L 28.707031 27.582031 L 1.292969 27.582031 Z M 1.292969 1.453125 " fill-opacity="1" fill-rule="nonzero"/></g></g><g clip-path="url(#13dc476f29)"><g clip-path="url(#2bd0865c9a)"><path stroke-linecap="butt" transform="matrix(0.730311, 0, 0, 0.725806, 1.292966, 1.453298)" fill="none" stroke-linejoin="miter" d="M 18.881091 -0.000238645 L 23.341948 13.75063 L 37.767526 13.75063 L 26.096554 22.24872 L 30.552063 35.994206 L 18.881091 27.496116 L 7.210118 35.994206 L 11.670976 22.24872 L 0.00000348676 13.75063 L 14.425582 13.75063 L 18.881091 -0.000238645 " stroke="#737373" stroke-width="2" stroke-opacity="1" stroke-miterlimit="4"/></g></g></svg>