<svg xmlns="http://www.w3.org/2000/svg" xmlns:xlink="http://www.w3.org/1999/xlink" width="40" zoomAndPan="magnify" viewBox="0 0 30 30.000001" height="40" preserveAspectRatio="xMidYMid meet" version="1.0"><defs><clipPath id="df25c5e4c4"><path d="M 6.058594 2.277344 L 24 2.277344 L 24 26.753906 L 6.058594 26.753906 Z M 6.058594 2.277344 " clip-rule="nonzero"/></clipPath><clipPath id="e2ca775f71"><path d="M 15 2.277344 L 23.941406 14.515625 L 15 26.753906 L 6.058594 14.515625 L 15 2.277344 " clip-rule="nonzero"/></clipPath><clipPath id="28d5713f3c"><path d="M 6.058594 2.28125 L 24.207031 2.28125 L 24.207031 26.953125 L 6.058594 26.953125 Z M 6.058594 2.28125 " clip-rule="nonzero"/></clipPath><clipPath id="b825a47d3e"><path d="M 15.132812 2.28125 L 24.207031 14.617188 L 15.132812 26.953125 L 6.058594 14.617188 L 15.132812 2.28125 " clip-rule="nonzero"/></clipPath></defs><g clip-path="url(#df25c5e4c4)"><g clip-path="url(#e2ca775f71)"><path fill="#f6f8f8" d="M 6.058594 2.277344 L 24.035156 2.277344 L 24.035156 26.753906 L 6.058594 26.753906 Z M 6.058594 2.277344 " fill-opacity="1" fill-rule="nonzero"/></g></g><g clip-path="url(#28d5713f3c)"><g clip-path="url(#b825a47d3e)"><path stroke-linecap="butt" transform="matrix(0.736859, 0, 0, 0.73186, 6.060267, 2.281178)" fill="none" stroke-linejoin="miter" d="M 12.312452 0.0000977002 L 24.627175 16.855685 L 12.312452 33.711272 L -0.00227135 16.855685 L 12.312452 0.0000977002 " stroke="#737373" stroke-width="2" stroke-opacity="1" stroke-miterlimit="4"/></g></g></svg>