<svg xmlns="http://www.w3.org/2000/svg" width="80" viewBox="0 0 30 30" height="80" version="1.0"><defs><clipPath id="a"><path d="M8.14 6.86h15.317v15.312H8.141Zm0 0"/></clipPath><clipPath id="b"><path d="M15.797 6.86a7.656 7.656 0 1 0 0 15.313 7.657 7.657 0 1 0 0-15.314"/></clipPath><clipPath id="c"><path d="M8.14 6.86h15.243v15.242H8.14Zm0 0"/></clipPath><clipPath id="d"><path d="M15.762 6.86a7.621 7.621 0 1 0 7.62 7.62c0-4.21-3.41-7.62-7.62-7.62"/></clipPath></defs><g clip-path="url(#a)"><g clip-path="url(#b)"><path fill="#d9c39e" d="M8.14 6.86h15.317v15.312H8.141Zm0 0"/></g></g><g clip-path="url(#c)"><g clip-path="url(#d)"><path fill="none" d="M15.762 6.86a7.621 7.621 0 1 0 7.62 7.62c0-4.21-3.41-7.62-7.62-7.62" stroke="#ff2600" stroke-width="4.335"/></g></g></svg>