<svg xmlns="http://www.w3.org/2000/svg" xmlns:xlink="http://www.w3.org/1999/xlink" width="15" zoomAndPan="magnify" viewBox="0 0 30 30.000001" height="15" preserveAspectRatio="xMidYMid meet" version="1.0"><defs><clipPath id="ef890c433f"><path d="M 0.484375 0.679688 L 29.515625 0.679688 L 29.515625 28.351562 L 0.484375 28.351562 Z M 0.484375 0.679688 " clip-rule="nonzero"/></clipPath><clipPath id="1055c8d772"><path d="M 15 0.679688 L 18.425781 11.25 L 29.515625 11.25 L 20.542969 17.78125 L 23.972656 28.351562 L 15 21.820312 L 6.027344 28.351562 L 9.457031 17.78125 L 0.484375 11.25 L 11.574219 11.25 L 15 0.679688 " clip-rule="nonzero"/></clipPath><clipPath id="8444b89b79"><path d="M 0.484375 0.679688 L 29.515625 0.679688 L 29.515625 28.261719 L 0.484375 28.261719 Z M 0.484375 0.679688 " clip-rule="nonzero"/></clipPath><clipPath id="2c0b57d6dc"><path d="M 15 0.679688 L 18.425781 11.214844 L 29.515625 11.214844 L 20.542969 17.726562 L 23.972656 28.261719 L 15 21.75 L 6.027344 28.261719 L 9.457031 17.726562 L 0.484375 11.214844 L 11.574219 11.214844 L 15 0.679688 " clip-rule="nonzero"/></clipPath></defs><g clip-path="url(#ef890c433f)"><g clip-path="url(#1055c8d772)"><path fill="#73fa79" d="M 0.484375 0.679688 L 29.515625 0.679688 L 29.515625 28.351562 L 0.484375 28.351562 Z M 0.484375 0.679688 " fill-opacity="1" fill-rule="nonzero"/></g></g><g clip-path="url(#8444b89b79)"><g clip-path="url(#2c0b57d6dc)"><path stroke-linecap="butt" transform="matrix(0.725806, 0, 0, 0.723427, 0.48387, 0.680445)" fill="none" stroke-linejoin="miter" d="M 20.000001 -0.00104776 L 24.719966 14.561802 L 39.999307 14.561802 L 27.63698 23.563015 L 32.362327 38.125865 L 20.000001 29.124652 L 7.637674 38.125865 L 12.363022 23.563015 L 0.000695111 14.561802 L 15.280036 14.561802 L 20.000001 -0.00104776 " stroke="#9437ff" stroke-width="6" stroke-opacity="1" stroke-miterlimit="4"/></g></g></svg>